<svg xmlns="http://www.w3.org/2000/svg" version="1.1" xmlns:xlink="http://www.w3.org/1999/xlink" xmlns:svgjs="http://svgjs.dev/svgjs" width="1500" height="1500" viewBox="0 0 1500 1500"><rect width="1500" height="1500" fill="#ffffff"></rect><g transform="matrix(0.6666666666666666,0,0,0.6666666666666666,249.39393939393938,438.5856950067477)"><svg viewBox="0 0 396 247" data-background-color="#ffffff" preserveAspectRatio="xMidYMid meet" height="935" width="1500" xmlns="http://www.w3.org/2000/svg" xmlns:xlink="http://www.w3.org/1999/xlink"><g id="tight-bounds" transform="matrix(1,0,0,1,0.2400000000000091,-0.09999999999999432)"><svg viewBox="0 0 395.52 247.2" height="247.2" width="395.52"><g><svg></svg></g><g><svg viewBox="0 0 395.52 247.2" height="247.2" width="395.52"><g transform="matrix(1,0,0,1,75.54432,68.90679513812154)"><svg viewBox="0 0 244.43135999999998 109.3864097237569" height="109.3864097237569" width="244.43135999999998"><g><svg viewBox="0 0 244.43135999999998 109.3864097237569" height="109.3864097237569" width="244.43135999999998"><g><svg viewBox="0 0 244.43135999999998 109.3864097237569" height="109.3864097237569" width="244.43135999999998"><g><svg viewBox="0 0 244.43135999999998 109.3864097237569" height="109.3864097237569" width="244.43135999999998"><g id="textblocktransform"><svg viewBox="0 0 244.43135999999998 109.3864097237569" height="109.3864097237569" width="244.43135999999998" id="textblock"><g><svg viewBox="0 0 244.43135999999998 109.3864097237569" height="109.3864097237569" width="244.43135999999998"><g transform="matrix(1,0,0,1,0,0)"><svg width="244.43135999999998" viewBox="0.6 -24.3 54.3 24.3" height="109.3864097237569" data-palette-color="#ffa458"><path d="M0.6-22.9L0.6-23.8 12.65-23.8 12.65-19.2Q13.45-21.5 15.1-22.9 16.75-24.3 20.1-24.3L20.1-24.3Q27.85-24.3 27.85-15.95L27.85-15.95 27.85-0.9 30.65-0.9 30.65 0 16.5 0 16.5-0.9 18.55-0.9 18.55-17.15Q18.55-20.15 18.15-21.03 17.75-21.9 16.7-21.9L16.7-21.9Q15.1-21.9 13.88-19.8 12.65-17.7 12.65-14.7L12.65-14.7 12.65-0.9 14.8-0.9 14.8 0 0.6 0 0.6-0.9 3.35-0.9 3.35-22.9 0.6-22.9ZM30.35-22.9L28.3-22.9 28.3-23.8 43.25-23.8 43.25-22.9 40.1-22.9 46.1-6.3 51.5-22.9 48.15-22.9 48.15-23.8 54.9-23.8 54.9-22.9 52.7-22.9 45.3 0 39.6 0 30.35-22.9Z" opacity="1" transform="matrix(1,0,0,1,0,0)" fill="#ffa458" class="wordmark-text-0" data-fill-palette-color="primary" id="text-0"></path></svg></g></svg></g></svg></g></svg></g></svg></g></svg></g></svg></g><path d="M232.452 62.907L232.452 13.092 11.435 13.092 11.435 234.108 232.452 234.108 232.452 184.293 222.587 184.293 222.587 224.244 21.299 224.244 21.299 22.956 222.587 22.956 222.587 62.907Z" fill="#ffa458" stroke="transparent" data-fill-palette-color="tertiary"></path></svg></g><defs></defs></svg><rect width="395.52" height="247.2" fill="none" stroke="none" visibility="hidden"></rect></g></svg></g></svg>